<?xml version="1.0" standalone="no"?>
<!DOCTYPE svg PUBLIC "-//W3C//DTD SVG 20010904//EN"
 "http://www.w3.org/TR/2001/REC-SVG-20010904/DTD/svg10.dtd">
<svg version="1.0" xmlns="http://www.w3.org/2000/svg"
 width="24.000000pt" height="24.000000pt" viewBox="0 0 24.000000 24.000000"
 preserveAspectRatio="xMidYMid meet">

<g transform="translate(0.000000,24.000000) scale(0.100000,-0.100000)"
fill="#282846" stroke="none">
<path d="M65 176 c-56 -46 -65 -56 -65 -76 0 -11 9 -29 20 -40 17 -17 33 -20
104 -20 64 0 88 4 100 16 20 20 20 50 1 66 -9 7 -21 19 -28 26 -57 61 -84 67
-132 28z m86 -6 c10 -6 19 -17 19 -26 0 -8 12 -19 26 -24 19 -7 25 -16 22 -33
-3 -20 -9 -22 -86 -25 -90 -3 -115 6 -110 41 2 11 12 25 22 31 11 6 28 19 38
29 21 19 41 22 69 7z"/>
</g>
</svg>
