<svg width="32" height="32" viewBox="0 0 32 32" fill="none" xmlns="http://www.w3.org/2000/svg">
<path d="M32 0H0V32H32V0Z" fill="#4DA0F1"/>
<path d="M4.23937 23.7208C6.36905 25.0714 8.89531 25.8531 11.6034 25.8531C19.2113 25.8531 25.3785 19.6852 25.3785 12.078C25.3785 11.888 25.3745 11.6995 25.3672 11.5115C25.6424 11.295 27.3443 9.93087 27.7615 9.05393C27.7615 9.05393 26.3794 9.6283 25.0267 9.76361C25.0241 9.76361 25.0208 9.76424 25.0181 9.76424C25.0181 9.76424 25.0208 9.76291 25.0254 9.75961C25.15 9.67633 26.8925 8.49016 27.1285 7.07683C27.1285 7.07683 26.1509 7.59861 24.7822 8.05509C24.5556 8.13037 24.3184 8.20437 24.0738 8.27298C23.1915 7.33137 21.9375 6.74365 20.5454 6.74365C17.8753 6.74365 15.7116 8.90668 15.7116 11.5748C15.7116 11.9513 15.7549 12.3177 15.8369 12.6696C15.4637 12.6543 9.78159 12.3357 5.91601 7.65451C5.91601 7.65451 3.60573 10.8084 7.29275 14.0516C7.29275 14.0516 6.17195 14.007 5.20499 13.4292C5.20499 13.4292 4.84984 17.2501 9.02528 18.2271C9.02528 18.2271 8.20367 18.5383 6.89294 18.3164C6.89294 18.3164 7.62593 21.4037 11.3356 21.6922C11.3356 21.6922 8.40218 24.3422 4.23804 23.7204L4.23937 23.7208Z" fill="white"/>
</svg>
